<mxfile host="app.diagrams.net" modified="2020-09-16T17:34:20.441Z" agent="5.0 (Windows NT 10.0; Win64; x64) AppleWebKit/537.36 (KHTML, like Gecko) Chrome/85.0.4183.102 Safari/537.36" etag="SS7iP5IAvKyjK0cnSBii" version="13.7.2" type="github">
  <diagram id="C5RBs43oDa-KdzZeNtuy" name="Page-1">
    <mxGraphModel dx="1117" dy="679" grid="1" gridSize="10" guides="1" tooltips="1" connect="1" arrows="1" fold="1" page="1" pageScale="1" pageWidth="827" pageHeight="1169" math="0" shadow="0">
      <root>
        <mxCell id="WIyWlLk6GJQsqaUBKTNV-0" />
        <mxCell id="WIyWlLk6GJQsqaUBKTNV-1" parent="WIyWlLk6GJQsqaUBKTNV-0" />
        <mxCell id="zkfFHV4jXpPFQw0GAbJ--0" value="Book" style="swimlane;fontStyle=2;align=center;verticalAlign=top;childLayout=stackLayout;horizontal=1;startSize=26;horizontalStack=0;resizeParent=1;resizeLast=0;collapsible=1;marginBottom=0;rounded=0;shadow=0;strokeWidth=1;fontFamily=Times New Roman;fontSize=16;" parent="WIyWlLk6GJQsqaUBKTNV-1" vertex="1">
          <mxGeometry x="90" y="60" width="190" height="300" as="geometry">
            <mxRectangle x="230" y="140" width="160" height="26" as="alternateBounds" />
          </mxGeometry>
        </mxCell>
        <mxCell id="zkfFHV4jXpPFQw0GAbJ--1" value="-author:String" style="text;align=left;verticalAlign=top;spacingLeft=4;spacingRight=4;overflow=hidden;rotatable=0;points=[[0,0.5],[1,0.5]];portConstraint=eastwest;fontFamily=Times New Roman;fontSize=14;" parent="zkfFHV4jXpPFQw0GAbJ--0" vertex="1">
          <mxGeometry y="26" width="190" height="26" as="geometry" />
        </mxCell>
        <mxCell id="zkfFHV4jXpPFQw0GAbJ--2" value="-name:String" style="text;align=left;verticalAlign=top;spacingLeft=4;spacingRight=4;overflow=hidden;rotatable=0;points=[[0,0.5],[1,0.5]];portConstraint=eastwest;rounded=0;shadow=0;html=0;fontFamily=Times New Roman;fontSize=14;" parent="zkfFHV4jXpPFQw0GAbJ--0" vertex="1">
          <mxGeometry y="52" width="190" height="26" as="geometry" />
        </mxCell>
        <mxCell id="zkfFHV4jXpPFQw0GAbJ--3" value="-age:String" style="text;align=left;verticalAlign=top;spacingLeft=4;spacingRight=4;overflow=hidden;rotatable=0;points=[[0,0.5],[1,0.5]];portConstraint=eastwest;rounded=0;shadow=0;html=0;fontFamily=Times New Roman;fontSize=14;" parent="zkfFHV4jXpPFQw0GAbJ--0" vertex="1">
          <mxGeometry y="78" width="190" height="26" as="geometry" />
        </mxCell>
        <mxCell id="YFlFLyjwC8dop75LKzHm-1" value="-editor:String" style="text;html=1;strokeColor=none;fillColor=none;align=left;verticalAlign=middle;whiteSpace=wrap;rounded=0;fontFamily=Times New Roman;fontSize=14;" vertex="1" parent="zkfFHV4jXpPFQw0GAbJ--0">
          <mxGeometry y="104" width="190" height="20" as="geometry" />
        </mxCell>
        <mxCell id="YFlFLyjwC8dop75LKzHm-0" value="-page:String" style="text;html=1;strokeColor=none;fillColor=none;align=left;verticalAlign=middle;whiteSpace=wrap;rounded=0;fontFamily=Times New Roman;fontSize=14;" vertex="1" parent="zkfFHV4jXpPFQw0GAbJ--0">
          <mxGeometry y="124" width="190" height="20" as="geometry" />
        </mxCell>
        <mxCell id="zkfFHV4jXpPFQw0GAbJ--4" value="" style="line;html=1;strokeWidth=1;align=left;verticalAlign=middle;spacingTop=-1;spacingLeft=3;spacingRight=3;rotatable=0;labelPosition=right;points=[];portConstraint=eastwest;fontFamily=Times New Roman;fontSize=14;" parent="zkfFHV4jXpPFQw0GAbJ--0" vertex="1">
          <mxGeometry y="144" width="190" height="36" as="geometry" />
        </mxCell>
        <mxCell id="YFlFLyjwC8dop75LKzHm-3" value="+ get Author (): String" style="text;html=1;strokeColor=none;fillColor=none;align=left;verticalAlign=middle;whiteSpace=wrap;rounded=0;fontFamily=Times New Roman;fontSize=14;" vertex="1" parent="zkfFHV4jXpPFQw0GAbJ--0">
          <mxGeometry y="180" width="190" height="20" as="geometry" />
        </mxCell>
        <mxCell id="YFlFLyjwC8dop75LKzHm-4" value="+ getName () : String" style="text;html=1;strokeColor=none;fillColor=none;align=left;verticalAlign=middle;whiteSpace=wrap;rounded=0;fontFamily=Times New Roman;fontSize=14;" vertex="1" parent="zkfFHV4jXpPFQw0GAbJ--0">
          <mxGeometry y="200" width="190" height="20" as="geometry" />
        </mxCell>
        <mxCell id="YFlFLyjwC8dop75LKzHm-5" value="+ getAge (): String" style="text;html=1;strokeColor=none;fillColor=none;align=left;verticalAlign=middle;whiteSpace=wrap;rounded=0;fontFamily=Times New Roman;fontSize=14;" vertex="1" parent="zkfFHV4jXpPFQw0GAbJ--0">
          <mxGeometry y="220" width="190" height="20" as="geometry" />
        </mxCell>
        <mxCell id="YFlFLyjwC8dop75LKzHm-6" value="+ getEditor(): String" style="text;html=1;strokeColor=none;fillColor=none;align=left;verticalAlign=middle;whiteSpace=wrap;rounded=0;fontFamily=Times New Roman;fontSize=14;" vertex="1" parent="zkfFHV4jXpPFQw0GAbJ--0">
          <mxGeometry y="240" width="190" height="20" as="geometry" />
        </mxCell>
        <mxCell id="YFlFLyjwC8dop75LKzHm-7" value="+ getPage(): String" style="text;html=1;strokeColor=none;fillColor=none;align=left;verticalAlign=middle;whiteSpace=wrap;rounded=0;fontFamily=Times New Roman;fontSize=14;" vertex="1" parent="zkfFHV4jXpPFQw0GAbJ--0">
          <mxGeometry y="260" width="190" height="20" as="geometry" />
        </mxCell>
        <mxCell id="YFlFLyjwC8dop75LKzHm-8" value="+toString(): String" style="text;html=1;strokeColor=none;fillColor=none;align=left;verticalAlign=middle;whiteSpace=wrap;rounded=0;fontFamily=Times New Roman;fontSize=14;" vertex="1" parent="zkfFHV4jXpPFQw0GAbJ--0">
          <mxGeometry y="280" width="190" height="20" as="geometry" />
        </mxCell>
        <mxCell id="YFlFLyjwC8dop75LKzHm-10" value="Circle" style="swimlane;fontStyle=2;align=center;verticalAlign=top;childLayout=stackLayout;horizontal=1;startSize=26;horizontalStack=0;resizeParent=1;resizeLast=0;collapsible=1;marginBottom=0;rounded=0;shadow=0;strokeWidth=1;fontFamily=Times New Roman;fontSize=16;" vertex="1" parent="WIyWlLk6GJQsqaUBKTNV-1">
          <mxGeometry x="310" y="60" width="190" height="190" as="geometry">
            <mxRectangle x="230" y="140" width="160" height="26" as="alternateBounds" />
          </mxGeometry>
        </mxCell>
        <mxCell id="YFlFLyjwC8dop75LKzHm-11" value="-radius:double = 2" style="text;align=left;verticalAlign=top;spacingLeft=4;spacingRight=4;overflow=hidden;rotatable=0;points=[[0,0.5],[1,0.5]];portConstraint=eastwest;fontFamily=Times New Roman;fontSize=14;" vertex="1" parent="YFlFLyjwC8dop75LKzHm-10">
          <mxGeometry y="26" width="190" height="26" as="geometry" />
        </mxCell>
        <mxCell id="YFlFLyjwC8dop75LKzHm-16" value="" style="line;html=1;strokeWidth=1;align=left;verticalAlign=middle;spacingTop=-1;spacingLeft=3;spacingRight=3;rotatable=0;labelPosition=right;points=[];portConstraint=eastwest;fontFamily=Times New Roman;fontSize=14;" vertex="1" parent="YFlFLyjwC8dop75LKzHm-10">
          <mxGeometry y="52" width="190" height="36" as="geometry" />
        </mxCell>
        <mxCell id="YFlFLyjwC8dop75LKzHm-17" value="+getRadius():double" style="text;html=1;strokeColor=none;fillColor=none;align=left;verticalAlign=middle;whiteSpace=wrap;rounded=0;fontFamily=Times New Roman;fontSize=14;" vertex="1" parent="YFlFLyjwC8dop75LKzHm-10">
          <mxGeometry y="88" width="190" height="28" as="geometry" />
        </mxCell>
        <mxCell id="YFlFLyjwC8dop75LKzHm-23" value="+getLenght():double" style="text;html=1;strokeColor=none;fillColor=none;align=left;verticalAlign=middle;whiteSpace=wrap;rounded=0;fontFamily=Times New Roman;fontSize=14;" vertex="1" parent="YFlFLyjwC8dop75LKzHm-10">
          <mxGeometry y="116" width="190" height="28" as="geometry" />
        </mxCell>
        <mxCell id="YFlFLyjwC8dop75LKzHm-24" value="+getArea():double" style="text;html=1;strokeColor=none;fillColor=none;align=left;verticalAlign=middle;whiteSpace=wrap;rounded=0;fontFamily=Times New Roman;fontSize=14;" vertex="1" parent="YFlFLyjwC8dop75LKzHm-10">
          <mxGeometry y="144" width="190" height="28" as="geometry" />
        </mxCell>
        <mxCell id="YFlFLyjwC8dop75LKzHm-25" value="Head" style="swimlane;fontStyle=2;align=center;verticalAlign=top;childLayout=stackLayout;horizontal=1;startSize=26;horizontalStack=0;resizeParent=1;resizeLast=0;collapsible=1;marginBottom=0;rounded=0;shadow=0;strokeWidth=1;fontFamily=Times New Roman;fontSize=16;" vertex="1" parent="WIyWlLk6GJQsqaUBKTNV-1">
          <mxGeometry x="90" y="570" width="190" height="270" as="geometry">
            <mxRectangle x="230" y="140" width="160" height="26" as="alternateBounds" />
          </mxGeometry>
        </mxCell>
        <mxCell id="YFlFLyjwC8dop75LKzHm-26" value="-color:String" style="text;align=left;verticalAlign=top;spacingLeft=4;spacingRight=4;overflow=hidden;rotatable=0;points=[[0,0.5],[1,0.5]];portConstraint=eastwest;fontFamily=Times New Roman;fontSize=14;" vertex="1" parent="YFlFLyjwC8dop75LKzHm-25">
          <mxGeometry y="26" width="190" height="26" as="geometry" />
        </mxCell>
        <mxCell id="YFlFLyjwC8dop75LKzHm-31" value="-diameter:int" style="text;align=left;verticalAlign=top;spacingLeft=4;spacingRight=4;overflow=hidden;rotatable=0;points=[[0,0.5],[1,0.5]];portConstraint=eastwest;fontFamily=Times New Roman;fontSize=14;" vertex="1" parent="YFlFLyjwC8dop75LKzHm-25">
          <mxGeometry y="52" width="190" height="26" as="geometry" />
        </mxCell>
        <mxCell id="YFlFLyjwC8dop75LKzHm-27" value="" style="line;html=1;strokeWidth=1;align=left;verticalAlign=middle;spacingTop=-1;spacingLeft=3;spacingRight=3;rotatable=0;labelPosition=right;points=[];portConstraint=eastwest;fontFamily=Times New Roman;fontSize=14;" vertex="1" parent="YFlFLyjwC8dop75LKzHm-25">
          <mxGeometry y="78" width="190" height="42" as="geometry" />
        </mxCell>
        <mxCell id="YFlFLyjwC8dop75LKzHm-28" value="+Head(c:String, d:int)" style="text;html=1;strokeColor=none;fillColor=none;align=left;verticalAlign=middle;whiteSpace=wrap;rounded=0;fontFamily=Times New Roman;fontSize=14;" vertex="1" parent="YFlFLyjwC8dop75LKzHm-25">
          <mxGeometry y="120" width="190" height="28" as="geometry" />
        </mxCell>
        <mxCell id="YFlFLyjwC8dop75LKzHm-29" value="+getColor():String" style="text;html=1;strokeColor=none;fillColor=none;align=left;verticalAlign=middle;whiteSpace=wrap;rounded=0;fontFamily=Times New Roman;fontSize=14;" vertex="1" parent="YFlFLyjwC8dop75LKzHm-25">
          <mxGeometry y="148" width="190" height="28" as="geometry" />
        </mxCell>
        <mxCell id="YFlFLyjwC8dop75LKzHm-30" value="+setColor():Void" style="text;html=1;strokeColor=none;fillColor=none;align=left;verticalAlign=middle;whiteSpace=wrap;rounded=0;fontFamily=Times New Roman;fontSize=14;" vertex="1" parent="YFlFLyjwC8dop75LKzHm-25">
          <mxGeometry y="176" width="190" height="28" as="geometry" />
        </mxCell>
        <mxCell id="YFlFLyjwC8dop75LKzHm-32" value="+getDiameter():int" style="text;html=1;strokeColor=none;fillColor=none;align=left;verticalAlign=middle;whiteSpace=wrap;rounded=0;fontFamily=Times New Roman;fontSize=14;" vertex="1" parent="YFlFLyjwC8dop75LKzHm-25">
          <mxGeometry y="204" width="190" height="28" as="geometry" />
        </mxCell>
        <mxCell id="YFlFLyjwC8dop75LKzHm-33" value="+setDiameter()Void" style="text;html=1;strokeColor=none;fillColor=none;align=left;verticalAlign=middle;whiteSpace=wrap;rounded=0;fontFamily=Times New Roman;fontSize=14;" vertex="1" parent="YFlFLyjwC8dop75LKzHm-25">
          <mxGeometry y="232" width="190" height="28" as="geometry" />
        </mxCell>
        <mxCell id="YFlFLyjwC8dop75LKzHm-44" style="edgeStyle=orthogonalEdgeStyle;rounded=0;orthogonalLoop=1;jettySize=auto;html=1;exitX=0.5;exitY=1;exitDx=0;exitDy=0;entryX=0.5;entryY=0;entryDx=0;entryDy=0;fontFamily=Times New Roman;fontSize=16;" edge="1" parent="WIyWlLk6GJQsqaUBKTNV-1" source="YFlFLyjwC8dop75LKzHm-34" target="YFlFLyjwC8dop75LKzHm-35">
          <mxGeometry relative="1" as="geometry" />
        </mxCell>
        <mxCell id="YFlFLyjwC8dop75LKzHm-45" style="edgeStyle=orthogonalEdgeStyle;rounded=0;orthogonalLoop=1;jettySize=auto;html=1;exitX=0.5;exitY=1;exitDx=0;exitDy=0;entryX=0.5;entryY=0;entryDx=0;entryDy=0;fontFamily=Times New Roman;fontSize=16;" edge="1" parent="WIyWlLk6GJQsqaUBKTNV-1" source="YFlFLyjwC8dop75LKzHm-34" target="YFlFLyjwC8dop75LKzHm-25">
          <mxGeometry relative="1" as="geometry" />
        </mxCell>
        <mxCell id="YFlFLyjwC8dop75LKzHm-55" style="edgeStyle=orthogonalEdgeStyle;rounded=0;orthogonalLoop=1;jettySize=auto;html=1;exitX=0.5;exitY=1;exitDx=0;exitDy=0;entryX=0.5;entryY=0;entryDx=0;entryDy=0;fontFamily=Times New Roman;fontSize=16;" edge="1" parent="WIyWlLk6GJQsqaUBKTNV-1" source="YFlFLyjwC8dop75LKzHm-34" target="YFlFLyjwC8dop75LKzHm-46">
          <mxGeometry relative="1" as="geometry" />
        </mxCell>
        <mxCell id="YFlFLyjwC8dop75LKzHm-34" value="Human" style="rounded=0;whiteSpace=wrap;html=1;fontFamily=Times New Roman;fontSize=16;align=center;" vertex="1" parent="WIyWlLk6GJQsqaUBKTNV-1">
          <mxGeometry x="354" y="420" width="120" height="60" as="geometry" />
        </mxCell>
        <mxCell id="YFlFLyjwC8dop75LKzHm-35" value="Leg" style="swimlane;fontStyle=2;align=center;verticalAlign=top;childLayout=stackLayout;horizontal=1;startSize=26;horizontalStack=0;resizeParent=1;resizeLast=0;collapsible=1;marginBottom=0;rounded=0;shadow=0;strokeWidth=1;fontFamily=Times New Roman;fontSize=16;" vertex="1" parent="WIyWlLk6GJQsqaUBKTNV-1">
          <mxGeometry x="319" y="570" width="190" height="270" as="geometry">
            <mxRectangle x="230" y="140" width="160" height="26" as="alternateBounds" />
          </mxGeometry>
        </mxCell>
        <mxCell id="YFlFLyjwC8dop75LKzHm-36" value="-lenght:Int" style="text;align=left;verticalAlign=top;spacingLeft=4;spacingRight=4;overflow=hidden;rotatable=0;points=[[0,0.5],[1,0.5]];portConstraint=eastwest;fontFamily=Times New Roman;fontSize=14;" vertex="1" parent="YFlFLyjwC8dop75LKzHm-35">
          <mxGeometry y="26" width="190" height="26" as="geometry" />
        </mxCell>
        <mxCell id="YFlFLyjwC8dop75LKzHm-37" value="-weight:int" style="text;align=left;verticalAlign=top;spacingLeft=4;spacingRight=4;overflow=hidden;rotatable=0;points=[[0,0.5],[1,0.5]];portConstraint=eastwest;fontFamily=Times New Roman;fontSize=14;" vertex="1" parent="YFlFLyjwC8dop75LKzHm-35">
          <mxGeometry y="52" width="190" height="26" as="geometry" />
        </mxCell>
        <mxCell id="YFlFLyjwC8dop75LKzHm-38" value="" style="line;html=1;strokeWidth=1;align=left;verticalAlign=middle;spacingTop=-1;spacingLeft=3;spacingRight=3;rotatable=0;labelPosition=right;points=[];portConstraint=eastwest;fontFamily=Times New Roman;fontSize=14;" vertex="1" parent="YFlFLyjwC8dop75LKzHm-35">
          <mxGeometry y="78" width="190" height="42" as="geometry" />
        </mxCell>
        <mxCell id="YFlFLyjwC8dop75LKzHm-39" value="+Leg(l:int,w:int)" style="text;html=1;strokeColor=none;fillColor=none;align=left;verticalAlign=middle;whiteSpace=wrap;rounded=0;fontFamily=Times New Roman;fontSize=14;" vertex="1" parent="YFlFLyjwC8dop75LKzHm-35">
          <mxGeometry y="120" width="190" height="28" as="geometry" />
        </mxCell>
        <mxCell id="YFlFLyjwC8dop75LKzHm-40" value="+getLenght():int" style="text;html=1;strokeColor=none;fillColor=none;align=left;verticalAlign=middle;whiteSpace=wrap;rounded=0;fontFamily=Times New Roman;fontSize=14;" vertex="1" parent="YFlFLyjwC8dop75LKzHm-35">
          <mxGeometry y="148" width="190" height="28" as="geometry" />
        </mxCell>
        <mxCell id="YFlFLyjwC8dop75LKzHm-41" value="+setLenght():void" style="text;html=1;strokeColor=none;fillColor=none;align=left;verticalAlign=middle;whiteSpace=wrap;rounded=0;fontFamily=Times New Roman;fontSize=14;" vertex="1" parent="YFlFLyjwC8dop75LKzHm-35">
          <mxGeometry y="176" width="190" height="28" as="geometry" />
        </mxCell>
        <mxCell id="YFlFLyjwC8dop75LKzHm-42" value="+getWeight():int" style="text;html=1;strokeColor=none;fillColor=none;align=left;verticalAlign=middle;whiteSpace=wrap;rounded=0;fontFamily=Times New Roman;fontSize=14;" vertex="1" parent="YFlFLyjwC8dop75LKzHm-35">
          <mxGeometry y="204" width="190" height="28" as="geometry" />
        </mxCell>
        <mxCell id="YFlFLyjwC8dop75LKzHm-43" value="+setWeight():void" style="text;html=1;strokeColor=none;fillColor=none;align=left;verticalAlign=middle;whiteSpace=wrap;rounded=0;fontFamily=Times New Roman;fontSize=14;" vertex="1" parent="YFlFLyjwC8dop75LKzHm-35">
          <mxGeometry y="232" width="190" height="28" as="geometry" />
        </mxCell>
        <mxCell id="YFlFLyjwC8dop75LKzHm-46" value="Hand" style="swimlane;fontStyle=2;align=center;verticalAlign=top;childLayout=stackLayout;horizontal=1;startSize=26;horizontalStack=0;resizeParent=1;resizeLast=0;collapsible=1;marginBottom=0;rounded=0;shadow=0;strokeWidth=1;fontFamily=Times New Roman;fontSize=16;" vertex="1" parent="WIyWlLk6GJQsqaUBKTNV-1">
          <mxGeometry x="550" y="570" width="190" height="270" as="geometry">
            <mxRectangle x="230" y="140" width="160" height="26" as="alternateBounds" />
          </mxGeometry>
        </mxCell>
        <mxCell id="YFlFLyjwC8dop75LKzHm-47" value="-skin:String" style="text;align=left;verticalAlign=top;spacingLeft=4;spacingRight=4;overflow=hidden;rotatable=0;points=[[0,0.5],[1,0.5]];portConstraint=eastwest;fontFamily=Times New Roman;fontSize=14;" vertex="1" parent="YFlFLyjwC8dop75LKzHm-46">
          <mxGeometry y="26" width="190" height="26" as="geometry" />
        </mxCell>
        <mxCell id="YFlFLyjwC8dop75LKzHm-48" value="-fingers:int" style="text;align=left;verticalAlign=top;spacingLeft=4;spacingRight=4;overflow=hidden;rotatable=0;points=[[0,0.5],[1,0.5]];portConstraint=eastwest;fontFamily=Times New Roman;fontSize=14;" vertex="1" parent="YFlFLyjwC8dop75LKzHm-46">
          <mxGeometry y="52" width="190" height="26" as="geometry" />
        </mxCell>
        <mxCell id="YFlFLyjwC8dop75LKzHm-49" value="" style="line;html=1;strokeWidth=1;align=left;verticalAlign=middle;spacingTop=-1;spacingLeft=3;spacingRight=3;rotatable=0;labelPosition=right;points=[];portConstraint=eastwest;fontFamily=Times New Roman;fontSize=14;" vertex="1" parent="YFlFLyjwC8dop75LKzHm-46">
          <mxGeometry y="78" width="190" height="42" as="geometry" />
        </mxCell>
        <mxCell id="YFlFLyjwC8dop75LKzHm-50" value="+Hand(s:String, f:int)" style="text;html=1;strokeColor=none;fillColor=none;align=left;verticalAlign=middle;whiteSpace=wrap;rounded=0;fontFamily=Times New Roman;fontSize=14;" vertex="1" parent="YFlFLyjwC8dop75LKzHm-46">
          <mxGeometry y="120" width="190" height="28" as="geometry" />
        </mxCell>
        <mxCell id="YFlFLyjwC8dop75LKzHm-51" value="+getSkin():String" style="text;html=1;strokeColor=none;fillColor=none;align=left;verticalAlign=middle;whiteSpace=wrap;rounded=0;fontFamily=Times New Roman;fontSize=14;" vertex="1" parent="YFlFLyjwC8dop75LKzHm-46">
          <mxGeometry y="148" width="190" height="28" as="geometry" />
        </mxCell>
        <mxCell id="YFlFLyjwC8dop75LKzHm-52" value="+setSkin():Void" style="text;html=1;strokeColor=none;fillColor=none;align=left;verticalAlign=middle;whiteSpace=wrap;rounded=0;fontFamily=Times New Roman;fontSize=14;" vertex="1" parent="YFlFLyjwC8dop75LKzHm-46">
          <mxGeometry y="176" width="190" height="28" as="geometry" />
        </mxCell>
        <mxCell id="YFlFLyjwC8dop75LKzHm-53" value="+getFingers():int" style="text;html=1;strokeColor=none;fillColor=none;align=left;verticalAlign=middle;whiteSpace=wrap;rounded=0;fontFamily=Times New Roman;fontSize=14;" vertex="1" parent="YFlFLyjwC8dop75LKzHm-46">
          <mxGeometry y="204" width="190" height="28" as="geometry" />
        </mxCell>
        <mxCell id="YFlFLyjwC8dop75LKzHm-54" value="+setFingers():Void" style="text;html=1;strokeColor=none;fillColor=none;align=left;verticalAlign=middle;whiteSpace=wrap;rounded=0;fontFamily=Times New Roman;fontSize=14;" vertex="1" parent="YFlFLyjwC8dop75LKzHm-46">
          <mxGeometry y="232" width="190" height="28" as="geometry" />
        </mxCell>
      </root>
    </mxGraphModel>
  </diagram>
</mxfile>
